<svg width="16" height="15" viewBox="0 0 16 15" fill="none" xmlns="http://www.w3.org/2000/svg">
<path d="M8.00062 0.140137C3.9396 0.140137 0.640625 3.43911 0.640625 7.50014C0.640625 11.5612 3.9396 14.8601 8.00062 14.8601C12.0617 14.8601 15.3606 11.5612 15.3606 7.50014C15.3606 3.43911 12.0617 0.140137 8.00062 0.140137ZM8.00062 0.780137C11.7158 0.780137 14.7206 3.78499 14.7206 7.50014C14.7206 11.2153 11.7158 14.2201 8.00062 14.2201C4.28548 14.2201 1.28062 11.2153 1.28062 7.50014C1.28062 3.78499 4.28548 0.780137 8.00062 0.780137ZM8.00062 3.02014C7.74602 3.02014 7.50184 3.12128 7.3218 3.30131C7.14177 3.48135 7.04063 3.72553 7.04062 3.98014C7.04063 4.23474 7.14177 4.47892 7.3218 4.65896C7.50184 4.83899 7.74602 4.94014 8.00062 4.94014C8.25523 4.94014 8.49941 4.83899 8.67945 4.65896C8.85948 4.47892 8.96062 4.23474 8.96062 3.98014C8.96062 3.72553 8.85948 3.48135 8.67945 3.30131C8.49941 3.12128 8.25523 3.02014 8.00062 3.02014ZM6.72062 6.22014V6.86014H7.04062H7.36062V11.0201H7.04062H6.72062V11.6601H7.04062H7.36062H8.64062H8.96062H9.28062V11.0201H8.96062H8.64062V6.22014H8.32062H7.04062H6.72062Z" fill="white"/>
</svg>
