<svg width="21" height="16" viewBox="0 0 21 16" fill="none" xmlns="http://www.w3.org/2000/svg">
<path d="M19.8711 5.45313C20.0234 5.33203 20.25 5.44531 20.25 5.63672V13.625C20.25 14.6602 19.4102 15.5 18.375 15.5H2.125C1.08984 15.5 0.25 14.6602 0.25 13.625V5.64063C0.25 5.44531 0.472656 5.33594 0.628906 5.45703C1.50391 6.13672 2.66406 7 6.64844 9.89453C7.47266 10.4961 8.86328 11.7617 10.25 11.7539C11.6445 11.7656 13.0625 10.4727 13.8555 9.89453C17.8398 7 18.9961 6.13281 19.8711 5.45313ZM10.25 10.5C11.1563 10.5156 12.4609 9.35938 13.1172 8.88281C18.3008 5.12109 18.6953 4.79297 19.8906 3.85547C20.1172 3.67969 20.25 3.40625 20.25 3.11719V2.375C20.25 1.33984 19.4102 0.5 18.375 0.5H2.125C1.08984 0.5 0.25 1.33984 0.25 2.375V3.11719C0.25 3.40625 0.382812 3.67578 0.609375 3.85547C1.80469 4.78906 2.19922 5.12109 7.38281 8.88281C8.03906 9.35938 9.34375 10.5156 10.25 10.5Z" fill="white"/>
</svg>
