<svg width="18" height="18" viewBox="0 0 18 18" fill="none" xmlns="http://www.w3.org/2000/svg">
<path d="M16.125 0C17.1406 0 18 0.859375 18 1.875V15.625C18 16.6797 17.1406 17.5 16.125 17.5H2.375C1.32031 17.5 0.5 16.6797 0.5 15.625V1.875C0.5 0.859375 1.32031 0 2.375 0H16.125ZM4.17188 15C10.4219 15 15.5 9.96094 15.5 3.67188C15.5 3.39844 15.3047 3.16406 15.0312 3.125L12.4922 2.53906C12.4531 2.53906 12.4141 2.5 12.375 2.5C12.1016 2.5 11.9062 2.65625 11.8281 2.89062L10.6562 5.625C10.6172 5.66406 10.5781 5.74219 10.5781 5.82031C10.5781 6.01562 10.6953 6.17188 10.8125 6.28906L12.2969 7.5C11.3984 9.375 9.875 10.9375 7.96094 11.8359L6.75 10.3516C6.63281 10.2344 6.47656 10.1562 6.28125 10.1562C6.20312 10.1562 6.125 10.1562 6.08594 10.1953L3.35156 11.3672C3.11719 11.4453 3 11.6406 3 11.875C3 11.9531 3 11.9922 3 12.0312L3.58594 14.5703C3.625 14.8438 3.85938 15 4.17188 15Z" fill="white"/>
</svg>
