<svg xmlns="http://www.w3.org/2000/svg" version="1.1" xmlns:xlink="http://www.w3.org/1999/xlink" width="512" height="512" x="0" y="0" viewBox="0 0 64 64" style="enable-background:new 0 0 512 512" xml:space="preserve" class=""><g><g data-name="Layer 18"><path d="M26 26v3.937L42.386 17 26 4.063V8a1 1 0 0 1-1 1H3v16h22a1 1 0 0 1 1 1Zm3.293-15.707A1 1 0 0 1 31 11v9h2v2h-6v-2h2v-6.586l-1.293 1.293-1.414-1.414ZM60.386 47 48 37.222 43.215 41H46.5a3.5 3.5 0 0 1 2.447 6 3.5 3.5 0 0 1-2.447 6H43v-2h3.5a1.5 1.5 0 0 0 0-3H44v-2h2.5a1.5 1.5 0 0 0 0-3H43v-1.83l-8.379 6.615A1 1 0 0 1 33 47v-5H21v13h22a1 1 0 0 1 1 1v3.937Z" fill="#ffffff" opacity="1" data-original="#000000" class=""></path><path d="M35 41v3.937L51.386 32 39 22.222 25.62 32.785A1 1 0 0 1 24 32v-5H12v13h22a1 1 0 0 1 1 1Zm-1.94-3.659a1 1 0 0 1 .3-1.11l4.465-3.719A3.263 3.263 0 0 0 39 30a2 2 0 0 0-4 0h-2a4 4 0 0 1 8 0 5.256 5.256 0 0 1-1.9 4.048L36.763 36H41v2h-7a1 1 0 0 1-.94-.659Z" fill="#ffffff" opacity="1" data-original="#000000" class=""></path></g></g></svg>
