<svg width="26" height="20" viewBox="0 0 26 20" fill="none" xmlns="http://www.w3.org/2000/svg">
<path d="M24.5625 7.5C25.0703 7.5 25.5 7.92969 25.5 8.4375V18.75C25.5 19.4531 24.9141 20 24.25 20H1.75C1.04688 20 0.5 19.4531 0.5 18.75V4.6875C0.5 4.17969 0.890625 3.75 1.4375 3.75H3V0.625C3 0.3125 3.27344 0 3.625 0H4.25C4.5625 0 4.875 0.3125 4.875 0.625V3.75H7.375V0.625C7.375 0.3125 7.64844 0 8 0H8.625C8.9375 0 9.25 0.3125 9.25 0.625V3.75H11.75V0.9375C11.75 0.429688 12.1406 0 12.6875 0H18.3125C18.8203 0 19.25 0.429688 19.25 0.9375V7.5H24.5625ZM5.5 15.7812V14.2188C5.5 13.9844 5.26562 13.75 5.03125 13.75H3.46875C3.19531 13.75 3 13.9844 3 14.2188V15.7812C3 16.0547 3.19531 16.25 3.46875 16.25H5.03125C5.26562 16.25 5.5 16.0547 5.5 15.7812ZM5.5 12.0312V10.4688C5.5 10.2344 5.26562 10 5.03125 10H3.46875C3.19531 10 3 10.2344 3 10.4688V12.0312C3 12.3047 3.19531 12.5 3.46875 12.5H5.03125C5.26562 12.5 5.5 12.3047 5.5 12.0312ZM5.5 8.28125V6.71875C5.5 6.48438 5.26562 6.25 5.03125 6.25H3.46875C3.19531 6.25 3 6.48438 3 6.71875V8.28125C3 8.55469 3.19531 8.75 3.46875 8.75H5.03125C5.26562 8.75 5.5 8.55469 5.5 8.28125ZM10.5 15.7812V14.2188C10.5 13.9844 10.2656 13.75 10.0312 13.75H8.46875C8.19531 13.75 8 13.9844 8 14.2188V15.7812C8 16.0547 8.19531 16.25 8.46875 16.25H10.0312C10.2656 16.25 10.5 16.0547 10.5 15.7812ZM10.5 12.0312V10.4688C10.5 10.2344 10.2656 10 10.0312 10H8.46875C8.19531 10 8 10.2344 8 10.4688V12.0312C8 12.3047 8.19531 12.5 8.46875 12.5H10.0312C10.2656 12.5 10.5 12.3047 10.5 12.0312ZM10.5 8.28125V6.71875C10.5 6.48438 10.2656 6.25 10.0312 6.25H8.46875C8.19531 6.25 8 6.48438 8 6.71875V8.28125C8 8.55469 8.19531 8.75 8.46875 8.75H10.0312C10.2656 8.75 10.5 8.55469 10.5 8.28125ZM16.75 12.0312V10.4688C16.75 10.2344 16.5156 10 16.2812 10H14.7188C14.4453 10 14.25 10.2344 14.25 10.4688V12.0312C14.25 12.3047 14.4453 12.5 14.7188 12.5H16.2812C16.5156 12.5 16.75 12.3047 16.75 12.0312ZM16.75 8.28125V6.71875C16.75 6.48438 16.5156 6.25 16.2812 6.25H14.7188C14.4453 6.25 14.25 6.48438 14.25 6.71875V8.28125C14.25 8.55469 14.4453 8.75 14.7188 8.75H16.2812C16.5156 8.75 16.75 8.55469 16.75 8.28125ZM16.75 4.53125V2.96875C16.75 2.73438 16.5156 2.5 16.2812 2.5H14.7188C14.4453 2.5 14.25 2.73438 14.25 2.96875V4.53125C14.25 4.80469 14.4453 5 14.7188 5H16.2812C16.5156 5 16.75 4.80469 16.75 4.53125ZM23 15.7812V14.2188C23 13.9844 22.7656 13.75 22.5312 13.75H20.9688C20.6953 13.75 20.5 13.9844 20.5 14.2188V15.7812C20.5 16.0547 20.6953 16.25 20.9688 16.25H22.5312C22.7656 16.25 23 16.0547 23 15.7812ZM23 12.0312V10.4688C23 10.2344 22.7656 10 22.5312 10H20.9688C20.6953 10 20.5 10.2344 20.5 10.4688V12.0312C20.5 12.3047 20.6953 12.5 20.9688 12.5H22.5312C22.7656 12.5 23 12.3047 23 12.0312Z" fill="white"/>
</svg>
