<svg width="26" height="20" viewBox="0 0 26 20" fill="none" xmlns="http://www.w3.org/2000/svg">
<path d="M24.875 13.75C25.1875 13.75 25.5 14.0625 25.5 14.375V15.625C25.5 15.9766 25.1875 16.25 24.875 16.25H23C23 18.3203 21.3203 20 19.25 20C17.1797 20 15.5 18.3203 15.5 16.25H10.5C10.5 18.3203 8.82031 20 6.75 20C4.67969 20 3 18.3203 3 16.25V11.25H8.9375C9.09375 11.25 9.25 11.1328 9.25 10.9375V10.3125C9.25 10.1562 9.09375 10 8.9375 10H0.8125C0.617188 10 0.5 9.88281 0.5 9.6875V9.0625C0.5 8.90625 0.617188 8.75 0.8125 8.75H10.1875C10.3438 8.75 10.5 8.63281 10.5 8.4375V7.8125C10.5 7.65625 10.3438 7.5 10.1875 7.5H2.0625C1.86719 7.5 1.75 7.38281 1.75 7.1875V6.5625C1.75 6.40625 1.86719 6.25 2.0625 6.25H11.4375C11.5938 6.25 11.75 6.13281 11.75 5.9375V5.3125C11.75 5.15625 11.5938 5 11.4375 5H0.8125C0.617188 5 0.5 4.88281 0.5 4.6875V4.0625C0.5 3.90625 0.617188 3.75 0.8125 3.75H3V1.875C3 0.859375 3.82031 0 4.875 0H14.875C15.8906 0 16.75 0.859375 16.75 1.875V3.75H18.4688C18.9375 3.75 19.4453 3.98438 19.7969 4.33594L23.6641 8.20312C24.0156 8.55469 24.25 9.0625 24.25 9.53125V13.75H24.875ZM6.75 18.125C7.76562 18.125 8.625 17.3047 8.625 16.25C8.625 15.2344 7.76562 14.375 6.75 14.375C5.69531 14.375 4.875 15.2344 4.875 16.25C4.875 17.3047 5.69531 18.125 6.75 18.125ZM19.25 18.125C20.2656 18.125 21.125 17.3047 21.125 16.25C21.125 15.2344 20.2656 14.375 19.25 14.375C18.1953 14.375 17.375 15.2344 17.375 16.25C17.375 17.3047 18.1953 18.125 19.25 18.125ZM22.375 10V9.53125L18.4688 5.625H16.75V10H22.375Z" fill="white"/>
</svg>
