<svg width="18" height="18" viewBox="0 0 18 18" fill="none" xmlns="http://www.w3.org/2000/svg">
<path d="M5.00122 11.5195H13.9856C14.2721 11.5195 14.5129 11.6172 14.7083 11.8125C14.9036 12.0078 15.0012 12.2422 15.0012 12.5156C15.0012 12.7891 14.9036 13.0234 14.7083 13.2188C14.5129 13.4141 14.2721 13.5117 13.9856 13.5117H3.9856C3.69914 13.5117 3.45825 13.4141 3.26294 13.2188C3.06763 13.0234 2.96997 12.7826 2.96997 12.4961V2.49609H0.977783C0.717367 2.49609 0.489502 2.39844 0.294189 2.20312C0.098877 2.00781 0.0012207 1.77344 0.0012207 1.5C0.0012207 1.22656 0.098877 0.992188 0.294189 0.796875C0.489502 0.601562 0.717367 0.503906 0.977783 0.503906H3.9856C4.27205 0.503906 4.51294 0.601562 4.70825 0.796875C4.90356 0.992188 5.00122 1.23307 5.00122 1.51953V3.51172H17.97L13.9856 10.5039H5.00122V11.5195ZM4.49341 14.5273C4.91007 14.5273 5.26164 14.6706 5.5481 14.957C5.83455 15.2435 5.97778 15.5951 5.97778 16.0117C5.97778 16.4284 5.83455 16.7799 5.5481 17.0664C5.26164 17.3529 4.91007 17.4961 4.49341 17.4961C4.07674 17.4961 3.71867 17.3529 3.41919 17.0664C3.11971 16.7799 2.96997 16.4284 2.96997 16.0117C2.96997 15.5951 3.11971 15.2435 3.41919 14.957C3.71867 14.6706 4.07674 14.5273 4.49341 14.5273ZM13.4778 14.5273C13.8945 14.5273 14.2525 14.6706 14.552 14.957C14.8515 15.2435 15.0012 15.5951 15.0012 16.0117C15.0012 16.4284 14.8515 16.7799 14.552 17.0664C14.2525 17.3529 13.8945 17.4961 13.4778 17.4961C13.0611 17.4961 12.7096 17.3529 12.4231 17.0664C12.1366 16.7799 11.9934 16.4284 11.9934 16.0117C11.9934 15.5951 12.1366 15.2435 12.4231 14.957C12.7096 14.6706 13.0611 14.5273 13.4778 14.5273Z" fill="white"/>
</svg>
