<svg width="26" height="26" viewBox="0 0 26 26" fill="none" xmlns="http://www.w3.org/2000/svg">
<path fill-rule="evenodd" clip-rule="evenodd" d="M8.82191 0.073239C5.66093 0.587789 3.02629 2.37525 1.37794 5.12355C0.812685 6.066 0.407595 7.12319 0.137006 8.36252C0.0172327 8.91083 0 9.16661 0 10.3942C0 11.6177 0.0174772 11.8785 0.135662 12.4191C0.701284 15.0078 2.09487 17.1999 4.15149 18.7364C7.69524 21.384 12.5464 21.4919 16.1988 19.0046L16.7576 18.624L20.3236 22.1886C22.6831 24.5472 23.9737 25.7941 24.1381 25.8741C24.6993 26.1471 25.4234 25.9622 25.7812 25.4547C26.0272 25.1056 26.072 24.5372 25.8838 24.1509C25.7948 23.968 24.6733 22.807 22.1875 20.3242L18.619 16.76L19.0093 16.1848C21.4927 12.5248 21.3821 7.70552 18.7336 4.16607C17.2001 2.11678 14.997 0.714366 12.4425 0.16147C11.6679 -0.00619966 9.61693 -0.0562075 8.82191 0.073239ZM9.62072 2.61259C6.12811 2.95739 3.28515 5.58961 2.67565 9.04278C2.54628 9.7755 2.5483 11.0254 2.67999 11.7375C3.13409 14.1934 4.6838 16.2605 6.90187 17.3691C7.96247 17.8992 8.83724 18.1169 10.079 18.1596C12.3601 18.2381 14.2889 17.4839 15.8844 15.8896C17.0811 14.6939 17.8167 13.2667 18.0877 11.6152C18.2426 10.6705 18.1834 9.38826 17.9416 8.45325C17.3877 6.31152 15.8869 4.43333 13.9337 3.43751C12.6375 2.77666 11.0447 2.47197 9.62072 2.61259Z" fill="white" fill-opacity="0.15"/>
</svg>
