<svg width="132" height="149" viewBox="0 0 132 149" fill="none" xmlns="http://www.w3.org/2000/svg">
<path d="M78.9537 137.046L89.9564 143.538H89.127L66.4583 145.354L78.9537 137.046ZM63.5279 120.926L64.0255 115.755L71.5449 118.341L72.2637 121.642L65.2971 124.833L63.5279 120.926ZM83.0452 119.111L84.151 116.14L89.6799 115.425V120.816L83.0452 119.111ZM67.564 126.373L74.0882 123.347C74.5858 123.127 74.8623 122.577 74.7517 122.082L73.7012 117.185C73.5906 116.8 73.3142 116.47 72.9272 116.305L65.6289 113.829L70.8261 110.363H75.6916C75.8022 110.363 75.9128 110.363 76.0234 110.308L82.9346 108.383L88.1871 113.279L83.1004 113.939C82.6581 113.994 82.3264 114.269 82.1605 114.655L80.336 119.441C80.2254 119.771 80.2254 120.101 80.3913 120.376C80.5571 120.651 80.8336 120.871 81.11 120.981L88.353 122.852L79.9489 130.114L79.2855 118.121C79.2302 117.46 78.6773 117.02 78.0691 117.02C77.4056 117.075 76.9633 117.57 76.9633 118.231L77.6268 130.884L67.564 126.373ZM11.9979 124.007L25.9862 100.845L36.3806 99.6901L36.2148 101.231C36.1595 101.506 36.2148 101.726 36.3806 101.946L49.5396 123.292L47.0515 138.917L11.9979 124.007ZM17.0292 96.7192L23.6087 100.24L12.7166 118.286L17.0292 96.7192ZM106.046 117.075C106.101 116.8 105.99 116.47 105.825 116.25L99.4109 107.337L105.935 93.5282C105.99 93.3632 106.046 93.1981 106.046 93.0331V90.1172L123.683 95.6738L128.991 108.108L121.084 129.124L103.06 136.441L106.046 117.075ZM59.547 119.056L62.2009 106.127L70.0521 95.6738C70.218 95.4538 70.2732 95.2337 70.2732 94.9586V79.9941L76.521 94.5185C76.5763 94.6835 76.7421 94.8486 76.908 94.9586L93.6055 107.777L100.019 132.26L100.461 137.762L94.1031 143.318L80.1701 135.066V133.085L91.6703 123.182L91.7257 123.127C91.781 123.072 91.8915 122.962 91.9468 122.852C91.9468 122.797 92.0021 122.742 92.0021 122.742C92.0021 122.687 92.0574 122.687 92.0574 122.632C92.0574 122.577 92.0574 122.522 92.0574 122.467C92.0574 122.412 92.1127 122.357 92.1127 122.357V114.159V114.104V114.049C92.1127 113.994 92.0574 113.939 92.0574 113.884C92.0574 113.829 92.0021 113.774 92.0021 113.664C91.9468 113.554 91.8915 113.499 91.8362 113.444C91.7809 113.389 91.7809 113.389 91.7809 113.334L84.2062 106.347C83.9298 106.072 83.4875 105.962 83.1004 106.072L75.6916 108.108H70.4944C70.2732 108.108 70.0521 108.163 69.8309 108.328L62.3668 113.279C62.3115 113.279 62.3115 113.334 62.2562 113.389C62.2009 113.444 62.0904 113.499 62.0351 113.609C61.9798 113.664 61.9798 113.719 61.9245 113.774C61.9245 113.829 61.8692 113.829 61.8692 113.884C61.8692 113.939 61.8692 113.994 61.8692 114.049C61.8692 114.104 61.8139 114.104 61.8139 114.159L61.0951 121.092C61.0951 121.312 61.0951 121.477 61.2057 121.697L63.6385 126.978C63.6937 127.088 63.7491 127.198 63.8596 127.308C63.8596 127.363 63.9149 127.363 63.9702 127.363C64.0255 127.418 64.0808 127.473 64.1914 127.528L64.2467 127.583L77.7373 133.69V135.231L62.0351 145.629L59.547 119.056ZM38.5922 101.065L39.2557 95.2337L43.0707 85.7159L53.7969 76.5281L55.2344 83.6252C55.2897 83.9003 55.4556 84.1204 55.6768 84.2854L62.588 89.622L56.2849 99.8001L52.0829 107.612C52.0276 107.722 51.9723 107.833 51.9723 107.998L50.0925 119.771L38.5922 101.065ZM81.3312 81.0945L83.9851 74.0523L89.6246 75.2627V77.5184C89.6246 78.0685 90.0117 78.5087 90.5093 78.6187L103.668 81.5896V92.758L97.0335 106.952C96.8676 107.337 96.8676 107.777 97.1441 108.108L103.724 117.185L101.733 129.784L95.7065 106.787C95.6512 106.512 95.4854 106.292 95.3195 106.182L78.5114 93.3081L72.5954 79.499L79.9489 81.7547C80.0595 81.8097 80.1701 81.8097 80.2807 81.8097C80.723 81.8097 81.1653 81.5346 81.3312 81.0945ZM106.046 87.6414V81.4246L122.743 73.8873L123.296 93.0881L106.046 87.6414ZM17.748 94.4635L34.3349 60.4632L52.7464 74.3824L41.3567 84.1204C41.1908 84.2304 41.0803 84.3954 41.025 84.5605L37.0441 94.5185C36.9888 94.6285 36.9888 94.7386 36.9888 94.7936L36.7124 97.3243L25.5439 98.5897L17.748 94.4635ZM92.0021 76.5831V74.3274C92.0021 73.7773 91.6151 73.3371 91.0622 73.1721L84.925 71.8517L95.043 49.3499L118.154 69.0458L121.637 71.7416L104.774 79.444L92.0021 76.5831ZM50.0372 140.182L49.2079 139.852L51.8618 123.292C51.8618 123.292 51.8618 123.292 51.8618 123.237L54.1839 108.603L58.2754 101.01L65.076 90.0071C65.4077 89.512 65.2419 88.8518 64.7996 88.4667L57.446 82.8L55.732 74.1624C55.732 74.0523 55.6767 73.9423 55.6214 73.8323L55.5662 73.7773C55.5109 73.6672 55.4003 73.6122 55.345 73.5022C55.345 73.5022 55.345 73.4471 55.2897 73.4471L35.7725 58.7027L48.3785 48.3596L59.8788 47.4793L65.6842 47.3693C65.7395 47.3693 65.7948 47.3693 65.85 47.3693L83.1558 44.2884L93.0526 48.1945L82.2158 72.2918C82.2158 72.2918 82.2158 72.2918 82.2158 72.3468C82.2158 72.3468 82.2158 72.3468 82.2158 72.4018L79.5619 79.3339L71.379 76.8032L70.2179 74.1073L67.6746 55.1816C67.5641 54.5765 67.0111 54.1363 66.3477 54.1913C65.6842 54.3014 65.2419 54.8515 65.3525 55.5117L67.8958 74.5475V94.7386L60.0999 105.082C59.9894 105.192 59.9341 105.357 59.8788 105.522L57.1696 118.891C57.1696 119.001 57.1143 119.111 57.1696 119.221L59.6576 145.519L50.0372 140.182ZM13.7118 81.9747C13.6566 81.8647 13.6013 81.6996 13.546 81.5896L9.28867 75.8679C7.29824 67.9455 4.36789 56.0619 4.25732 55.1816C4.25732 54.4664 3.42796 51.3855 2.93035 49.4049L4.25732 41.4275C4.25732 41.3175 4.25732 41.2074 4.25732 41.0974L2.32218 28.3335L5.41839 18.1555L9.23339 16.8901L28.3083 31.7446L37.9288 41.4825C37.984 41.5375 38.0393 41.5925 38.0946 41.5925L46.0563 47.2592L33.1738 57.7674C33.1185 57.7674 33.1185 57.8224 33.1185 57.8774C33.0633 57.9325 33.0633 57.9325 33.008 57.9875C33.008 58.0425 32.9527 58.0425 32.9527 58.0975C32.9527 58.1525 32.8974 58.1525 32.8974 58.1525L16.5316 91.7127L13.7118 81.9747ZM95.3748 46.599C95.3195 46.544 95.2642 46.489 95.1536 46.489C95.0983 46.489 95.0983 46.434 95.0983 46.434L84.9803 42.4728L100.793 13.094L108.644 2.3107H115.168L124.623 56.447L118.596 66.405L95.3748 46.599ZM108.091 0C107.704 0 107.373 0.165051 107.151 0.49515L98.858 11.7736C98.8027 11.8286 98.8027 11.8836 98.7474 11.9386L82.5475 42.0327L65.5736 45.0586L59.8235 45.1686L48.3232 46.0489L39.5322 39.832L29.9117 30.0941C29.8565 30.0391 29.8564 30.0391 29.8012 29.984L10.1733 14.6894C9.84157 14.4694 9.45454 14.3593 9.06751 14.5244L4.09144 16.1749C3.7597 16.2849 3.48326 16.56 3.37268 16.9451L0.0552931 27.9484C3.37379e-06 28.1135 0 28.2785 0 28.4436L1.93514 41.3175L0.60819 49.4049C0.60819 49.57 0.60819 49.735 0.60819 49.9C1.21638 52.1557 1.87985 54.8515 1.93514 55.2917C1.93514 56.0069 4.75491 67.3403 7.13237 76.7481C7.18766 76.9132 7.24296 77.0232 7.29825 77.1333L11.5555 82.91L15.0388 95.0687L9.1781 124.393C9.1781 124.393 9.1781 124.393 9.1781 124.448C9.1781 124.503 9.1781 124.558 9.1781 124.613C9.1781 124.723 9.1781 124.778 9.1781 124.888C9.1781 124.943 9.23339 124.998 9.23339 125.053C9.28868 125.108 9.28867 125.218 9.34396 125.273C9.39925 125.328 9.39926 125.383 9.45455 125.383C9.50984 125.438 9.56512 125.493 9.6757 125.548L9.73099 125.603C9.73099 125.603 9.78627 125.603 9.84156 125.658C9.84156 125.658 9.89686 125.658 9.89686 125.713L49.0973 142.328L60.5975 148.545C60.5975 148.545 60.5975 148.545 60.6528 148.545C60.6528 148.545 60.6528 148.545 60.7081 148.545C60.874 148.6 60.9846 148.655 61.1504 148.655C61.2057 148.655 61.3163 148.655 61.3716 148.655L66.6241 147.72L89.2929 145.904H94.269C94.3796 145.904 94.4901 145.904 94.656 145.849C94.7113 145.849 94.7113 145.849 94.7666 145.794C94.8772 145.739 94.9325 145.684 95.043 145.629C95.043 145.629 95.0983 145.629 95.0983 145.574L102.341 139.247L122.577 131.05C122.854 130.939 123.13 130.664 123.241 130.389L131.534 108.438C131.645 108.163 131.645 107.833 131.534 107.557L125.895 94.3534L125.231 72.0167C125.231 71.8517 125.176 71.7416 125.121 71.5766C125.121 71.5216 125.065 71.4665 125.01 71.4665C124.955 71.3565 124.899 71.3015 124.789 71.2465C124.789 71.2465 124.789 71.2465 124.789 71.1915L120.587 67.9455L127 57.2723C127.166 57.0522 127.166 56.7771 127.166 56.502L117.269 0.93528C117.159 0.385114 116.717 0 116.108 0H108.091Z" fill="url(#paint0_linear_3351_607)"/>
<mask id="mask0_3351_607" style="mask-type:luminance" maskUnits="userSpaceOnUse" x="0" y="0" width="132" height="149">
<path d="M78.9537 137.046L89.9564 143.538H89.127L66.4583 145.354L78.9537 137.046ZM63.5279 120.926L64.0255 115.755L71.5449 118.341L72.2637 121.642L65.2971 124.833L63.5279 120.926ZM83.0452 119.111L84.151 116.14L89.6799 115.425V120.816L83.0452 119.111ZM67.564 126.373L74.0882 123.347C74.5858 123.127 74.8623 122.577 74.7517 122.082L73.7012 117.185C73.5906 116.8 73.3142 116.47 72.9272 116.305L65.6289 113.829L70.8261 110.363H75.6916C75.8022 110.363 75.9128 110.363 76.0234 110.308L82.9346 108.383L88.1871 113.279L83.1004 113.939C82.6581 113.994 82.3264 114.269 82.1605 114.655L80.336 119.441C80.2254 119.771 80.2254 120.101 80.3913 120.376C80.5571 120.651 80.8336 120.871 81.11 120.981L88.353 122.852L79.9489 130.114L79.2855 118.121C79.2302 117.46 78.6773 117.02 78.0691 117.02C77.4056 117.075 76.9633 117.57 76.9633 118.231L77.6268 130.884L67.564 126.373ZM11.9979 124.007L25.9862 100.845L36.3806 99.6901L36.2148 101.231C36.1595 101.506 36.2148 101.726 36.3806 101.946L49.5396 123.292L47.0515 138.917L11.9979 124.007ZM17.0292 96.7192L23.6087 100.24L12.7166 118.286L17.0292 96.7192ZM106.046 117.075C106.101 116.8 105.99 116.47 105.825 116.25L99.4109 107.337L105.935 93.5282C105.99 93.3632 106.046 93.1981 106.046 93.0331V90.1172L123.683 95.6738L128.991 108.108L121.084 129.124L103.06 136.441L106.046 117.075ZM59.547 119.056L62.2009 106.127L70.0521 95.6738C70.218 95.4538 70.2732 95.2337 70.2732 94.9586V79.9941L76.521 94.5185C76.5763 94.6835 76.7421 94.8486 76.908 94.9586L93.6055 107.777L100.019 132.26L100.461 137.762L94.1031 143.318L80.1701 135.066V133.085L91.6703 123.182L91.7257 123.127C91.781 123.072 91.8915 122.962 91.9468 122.852C91.9468 122.797 92.0021 122.742 92.0021 122.742C92.0021 122.687 92.0574 122.687 92.0574 122.632C92.0574 122.577 92.0574 122.522 92.0574 122.467C92.0574 122.412 92.1127 122.357 92.1127 122.357V114.159V114.104V114.049C92.1127 113.994 92.0574 113.939 92.0574 113.884C92.0574 113.829 92.0021 113.774 92.0021 113.664C91.9468 113.554 91.8915 113.499 91.8362 113.444C91.7809 113.389 91.7809 113.389 91.7809 113.334L84.2062 106.347C83.9298 106.072 83.4875 105.962 83.1004 106.072L75.6916 108.108H70.4944C70.2732 108.108 70.0521 108.163 69.8309 108.328L62.3668 113.279C62.3115 113.279 62.3115 113.334 62.2562 113.389C62.2009 113.444 62.0904 113.499 62.0351 113.609C61.9798 113.664 61.9798 113.719 61.9245 113.774C61.9245 113.829 61.8692 113.829 61.8692 113.884C61.8692 113.939 61.8692 113.994 61.8692 114.049C61.8692 114.104 61.8139 114.104 61.8139 114.159L61.0951 121.092C61.0951 121.312 61.0951 121.477 61.2057 121.697L63.6385 126.978C63.6937 127.088 63.7491 127.198 63.8596 127.308C63.8596 127.363 63.9149 127.363 63.9702 127.363C64.0255 127.418 64.0808 127.473 64.1914 127.528L64.2467 127.583L77.7373 133.69V135.231L62.0351 145.629L59.547 119.056ZM38.5922 101.065L39.2557 95.2337L43.0707 85.7159L53.7969 76.5281L55.2344 83.6252C55.2897 83.9003 55.4556 84.1204 55.6768 84.2854L62.588 89.622L56.2849 99.8001L52.0829 107.612C52.0276 107.722 51.9723 107.833 51.9723 107.998L50.0925 119.771L38.5922 101.065ZM81.3312 81.0945L83.9851 74.0523L89.6246 75.2627V77.5184C89.6246 78.0685 90.0117 78.5087 90.5093 78.6187L103.668 81.5896V92.758L97.0335 106.952C96.8676 107.337 96.8676 107.777 97.1441 108.108L103.724 117.185L101.733 129.784L95.7065 106.787C95.6512 106.512 95.4854 106.292 95.3195 106.182L78.5114 93.3081L72.5954 79.499L79.9489 81.7547C80.0595 81.8097 80.1701 81.8097 80.2807 81.8097C80.723 81.8097 81.1653 81.5346 81.3312 81.0945ZM106.046 87.6414V81.4246L122.743 73.8873L123.296 93.0881L106.046 87.6414ZM17.748 94.4635L34.3349 60.4632L52.7464 74.3824L41.3567 84.1204C41.1908 84.2304 41.0803 84.3954 41.025 84.5605L37.0441 94.5185C36.9888 94.6285 36.9888 94.7386 36.9888 94.7936L36.7124 97.3243L25.5439 98.5897L17.748 94.4635ZM92.0021 76.5831V74.3274C92.0021 73.7773 91.6151 73.3371 91.0622 73.1721L84.925 71.8517L95.043 49.3499L118.154 69.0458L121.637 71.7416L104.774 79.444L92.0021 76.5831ZM50.0372 140.182L49.2079 139.852L51.8618 123.292C51.8618 123.292 51.8618 123.292 51.8618 123.237L54.1839 108.603L58.2754 101.01L65.076 90.0071C65.4077 89.512 65.2419 88.8518 64.7996 88.4667L57.446 82.8L55.732 74.1624C55.732 74.0523 55.6767 73.9423 55.6214 73.8323L55.5662 73.7773C55.5109 73.6672 55.4003 73.6122 55.345 73.5022C55.345 73.5022 55.345 73.4471 55.2897 73.4471L35.7725 58.7027L48.3785 48.3596L59.8788 47.4793L65.6842 47.3693C65.7395 47.3693 65.7948 47.3693 65.85 47.3693L83.1558 44.2884L93.0526 48.1945L82.2158 72.2918C82.2158 72.2918 82.2158 72.2918 82.2158 72.3468C82.2158 72.3468 82.2158 72.3468 82.2158 72.4018L79.5619 79.3339L71.379 76.8032L70.2179 74.1073L67.6746 55.1816C67.5641 54.5765 67.0111 54.1363 66.3477 54.1913C65.6842 54.3014 65.2419 54.8515 65.3525 55.5117L67.8958 74.5475V94.7386L60.0999 105.082C59.9894 105.192 59.9341 105.357 59.8788 105.522L57.1696 118.891C57.1696 119.001 57.1143 119.111 57.1696 119.221L59.6576 145.519L50.0372 140.182ZM13.7118 81.9747C13.6566 81.8647 13.6013 81.6996 13.546 81.5896L9.28867 75.8679C7.29824 67.9455 4.36789 56.0619 4.25732 55.1816C4.25732 54.4664 3.42796 51.3855 2.93035 49.4049L4.25732 41.4275C4.25732 41.3175 4.25732 41.2074 4.25732 41.0974L2.32218 28.3335L5.41839 18.1555L9.23339 16.8901L28.3083 31.7446L37.9288 41.4825C37.984 41.5375 38.0393 41.5925 38.0946 41.5925L46.0563 47.2592L33.1738 57.7674C33.1185 57.7674 33.1185 57.8224 33.1185 57.8774C33.0633 57.9325 33.0633 57.9325 33.008 57.9875C33.008 58.0425 32.9527 58.0425 32.9527 58.0975C32.9527 58.1525 32.8974 58.1525 32.8974 58.1525L16.5316 91.7127L13.7118 81.9747ZM95.3748 46.599C95.3195 46.544 95.2642 46.489 95.1536 46.489C95.0983 46.489 95.0983 46.434 95.0983 46.434L84.9803 42.4728L100.793 13.094L108.644 2.3107H115.168L124.623 56.447L118.596 66.405L95.3748 46.599ZM108.091 0C107.704 0 107.373 0.165051 107.151 0.49515L98.858 11.7736C98.8027 11.8286 98.8027 11.8836 98.7474 11.9386L82.5475 42.0327L65.5736 45.0586L59.8235 45.1686L48.3232 46.0489L39.5322 39.832L29.9117 30.0941C29.8565 30.0391 29.8564 30.0391 29.8012 29.984L10.1733 14.6894C9.84157 14.4694 9.45454 14.3593 9.06751 14.5244L4.09144 16.1749C3.7597 16.2849 3.48326 16.56 3.37268 16.9451L0.0552931 27.9484C3.37379e-06 28.1135 0 28.2785 0 28.4436L1.93514 41.3175L0.60819 49.4049C0.60819 49.57 0.60819 49.735 0.60819 49.9C1.21638 52.1557 1.87985 54.8515 1.93514 55.2917C1.93514 56.0069 4.75491 67.3403 7.13237 76.7481C7.18766 76.9132 7.24296 77.0232 7.29825 77.1333L11.5555 82.91L15.0388 95.0687L9.1781 124.393C9.1781 124.393 9.1781 124.393 9.1781 124.448C9.1781 124.503 9.1781 124.558 9.1781 124.613C9.1781 124.723 9.1781 124.778 9.1781 124.888C9.1781 124.943 9.23339 124.998 9.23339 125.053C9.28868 125.108 9.28867 125.218 9.34396 125.273C9.39925 125.328 9.39926 125.383 9.45455 125.383C9.50984 125.438 9.56512 125.493 9.6757 125.548L9.73099 125.603C9.73099 125.603 9.78627 125.603 9.84156 125.658C9.84156 125.658 9.89686 125.658 9.89686 125.713L49.0973 142.328L60.5975 148.545C60.5975 148.545 60.5975 148.545 60.6528 148.545C60.6528 148.545 60.6528 148.545 60.7081 148.545C60.874 148.6 60.9846 148.655 61.1504 148.655C61.2057 148.655 61.3163 148.655 61.3716 148.655L66.6241 147.72L89.2929 145.904H94.269C94.3796 145.904 94.4901 145.904 94.656 145.849C94.7113 145.849 94.7113 145.849 94.7666 145.794C94.8772 145.739 94.9325 145.684 95.043 145.629C95.043 145.629 95.0983 145.629 95.0983 145.574L102.341 139.247L122.577 131.05C122.854 130.939 123.13 130.664 123.241 130.389L131.534 108.438C131.645 108.163 131.645 107.833 131.534 107.557L125.895 94.3534L125.231 72.0167C125.231 71.8517 125.176 71.7416 125.121 71.5766C125.121 71.5216 125.065 71.4665 125.01 71.4665C124.955 71.3565 124.899 71.3015 124.789 71.2465C124.789 71.2465 124.789 71.2465 124.789 71.1915L120.587 67.9455L127 57.2723C127.166 57.0522 127.166 56.7771 127.166 56.502L117.269 0.93528C117.159 0.385114 116.717 0 116.108 0H108.091Z" fill="white"/>
</mask>
<g mask="url(#mask0_3351_607)">
<path d="M131.416 0H-0.0625V148.655H131.416V0Z" fill="url(#paint1_linear_3351_607)"/>
</g>
<defs>
<linearGradient id="paint0_linear_3351_607" x1="-0.0485997" y1="74.3109" x2="131.405" y2="74.3109" gradientUnits="userSpaceOnUse">
<stop stop-color="#171CC0"/>
<stop offset="0.063018" stop-color="#1725C4"/>
<stop offset="0.1658" stop-color="#183DCE"/>
<stop offset="0.2955" stop-color="#1965DF"/>
<stop offset="0.4458" stop-color="#1A9CF6"/>
<stop offset="0.5" stop-color="#1BB1FF"/>
<stop offset="1" stop-color="#C41BFF"/>
</linearGradient>
<linearGradient id="paint1_linear_3351_607" x1="-0.0693411" y1="74.3362" x2="131.427" y2="74.3362" gradientUnits="userSpaceOnUse">
<stop stop-color="#171CC0"/>
<stop offset="0.063018" stop-color="#1725C4"/>
<stop offset="0.1658" stop-color="#183DCE"/>
<stop offset="0.2955" stop-color="#1965DF"/>
<stop offset="0.4458" stop-color="#1A9CF6"/>
<stop offset="0.5" stop-color="#1BB1FF"/>
<stop offset="1" stop-color="#C41BFF"/>
</linearGradient>
</defs>
</svg>
