<svg width="49" height="48" viewBox="0 0 49 48" fill="none" xmlns="http://www.w3.org/2000/svg">
<g clip-path="url(#clip0_3386_4224)">
<path d="M26.0743 17.4488L27.4273 18.2408H27.3253L24.5377 18.4623L26.0743 17.4488ZM24.1774 15.4821L24.2385 14.8511L25.1632 15.1666L25.2516 15.5693L24.3949 15.9586L24.1774 15.4821ZM26.5774 15.2606L26.7134 14.8981L27.3933 14.8108V15.4686L26.5774 15.2606ZM24.6737 16.1466L25.476 15.7774C25.5371 15.7506 25.5711 15.6834 25.5575 15.623L25.4284 15.0256C25.4148 14.9786 25.3808 14.9384 25.3332 14.9182L24.4357 14.6162L25.0748 14.1933H25.6731C25.6867 14.1933 25.7003 14.1933 25.7139 14.1866L26.5638 13.9517L27.2097 14.5491L26.5842 14.6296C26.5298 14.6363 26.489 14.6699 26.4686 14.7169L26.2442 15.3008C26.2306 15.3411 26.2306 15.3814 26.251 15.4149C26.2714 15.4485 26.3054 15.4754 26.3394 15.4888L27.2301 15.717L26.1966 16.603L26.1151 15.1397C26.1083 15.0592 26.0403 15.0055 25.9655 15.0055C25.8839 15.0122 25.8295 15.0726 25.8295 15.1532L25.9111 16.697L24.6737 16.1466ZM17.8407 15.858L19.5609 13.0321L20.8391 12.8911L20.8187 13.0791C20.8119 13.1126 20.8187 13.1395 20.8391 13.1663L22.4572 15.7707L22.1513 17.677L17.8407 15.858ZM18.4594 12.5287L19.2685 12.9583L17.9291 15.1599L18.4594 12.5287ZM29.4057 15.0122C29.4125 14.9786 29.399 14.9384 29.3786 14.9115L28.5899 13.8241L29.3921 12.1394C29.3989 12.1192 29.4057 12.0991 29.4057 12.079V11.7232L31.5746 12.4011L32.2273 13.9181L31.2551 16.4822L29.0386 17.3749L29.4057 15.0122ZM23.6878 15.2539L24.0142 13.6765L24.9796 12.4011C25 12.3743 25.0068 12.3474 25.0068 12.3139V10.4881L25.7751 12.2602C25.7819 12.2803 25.8023 12.3005 25.8227 12.3139L27.876 13.8778L28.6647 16.8648L28.7191 17.536L27.9372 18.214L26.2238 17.2071V16.9655L27.638 15.7573L27.6448 15.7506C27.6516 15.7438 27.6652 15.7304 27.672 15.717C27.672 15.7103 27.6788 15.7036 27.6788 15.7036C27.6788 15.6969 27.6856 15.6969 27.6856 15.6901C27.6856 15.6834 27.6856 15.6767 27.6856 15.67C27.6856 15.6633 27.6924 15.6566 27.6924 15.6566V14.6565V14.6497V14.643C27.6924 14.6363 27.6856 14.6296 27.6856 14.6229C27.6856 14.6162 27.6788 14.6095 27.6788 14.5961C27.672 14.5826 27.6652 14.5759 27.6584 14.5692C27.6516 14.5625 27.6516 14.5625 27.6516 14.5558L26.7202 13.7033C26.6862 13.6698 26.6318 13.6563 26.5842 13.6698L25.6731 13.9181H25.034C25.0068 13.9181 24.9796 13.9248 24.9524 13.945L24.0346 14.5491C24.0278 14.5491 24.0278 14.5558 24.021 14.5625C24.0142 14.5692 24.0006 14.5759 23.9938 14.5893C23.987 14.596 23.987 14.6028 23.9802 14.6095C23.9802 14.6162 23.9734 14.6162 23.9734 14.6229C23.9734 14.6296 23.9734 14.6363 23.9734 14.643C23.9734 14.6497 23.9666 14.6497 23.9666 14.6565L23.8782 15.5022C23.8782 15.5291 23.8782 15.5492 23.8918 15.576L24.1909 16.2204C24.1977 16.2338 24.2045 16.2473 24.2181 16.2607C24.2181 16.2674 24.2249 16.2674 24.2317 16.2674C24.2385 16.2741 24.2453 16.2808 24.2589 16.2875L24.2657 16.2943L25.9247 17.0393V17.2273L23.9938 18.4959L23.6878 15.2539ZM21.111 13.0589L21.1926 12.3474L21.6617 11.1862L22.9807 10.0653L23.1575 10.9312C23.1643 10.9647 23.1847 10.9916 23.2119 11.0117L24.0618 11.6628L23.2867 12.9046L22.77 13.8577C22.7632 13.8711 22.7564 13.8845 22.7564 13.9047L22.5252 15.3411L21.111 13.0589ZM26.3666 10.6224L26.693 9.76322L27.3865 9.91089V10.1861C27.3865 10.2532 27.4341 10.3069 27.4952 10.3203L29.1134 10.6828V12.0454L28.2975 13.7772C28.2771 13.8241 28.2771 13.8778 28.3111 13.9181L29.1202 15.0256L28.8754 16.5627L28.1343 13.757C28.1275 13.7235 28.1072 13.6966 28.0868 13.6832L26.0199 12.1125L25.2924 10.4277L26.1966 10.7029C26.2102 10.7097 26.2238 10.7096 26.2374 10.7096C26.2918 10.7096 26.3462 10.6761 26.3666 10.6224ZM29.4057 11.4211V10.6627L31.459 9.74308L31.527 12.0857L29.4057 11.4211ZM18.5478 12.2535L20.5875 8.10529L22.8516 9.80349L21.451 10.9916C21.4306 11.005 21.417 11.0251 21.4102 11.0453L20.9207 12.2602C20.9139 12.2736 20.9139 12.287 20.9139 12.2937L20.8799 12.6025L19.5065 12.7569L18.5478 12.2535ZM27.6788 10.072V9.79678C27.6788 9.72966 27.6312 9.67596 27.5632 9.65582L26.8085 9.49473L28.0528 6.74941L30.8947 9.1524L31.3231 9.48131L29.2494 10.421L27.6788 10.072ZM22.5184 17.8314L22.4164 17.7911L22.7428 15.7707C22.7428 15.7707 22.7428 15.7707 22.7428 15.764L23.0283 13.9785L23.5315 13.0522L24.3677 11.7098C24.4085 11.6494 24.3881 11.5688 24.3337 11.5218L23.4295 10.8305L23.2187 9.77665C23.2187 9.76322 23.2119 9.7498 23.2051 9.73637L23.1983 9.72966C23.1915 9.71624 23.1779 9.70952 23.1711 9.6961C23.1711 9.6961 23.1711 9.68939 23.1643 9.68939L20.7643 7.8905L22.3144 6.62859L23.7286 6.5212L24.4425 6.50777C24.4493 6.50777 24.4561 6.50777 24.4629 6.50777L26.591 6.13189L27.808 6.60846L26.4754 9.54843C26.4754 9.54843 26.4754 9.54843 26.4754 9.55514C26.4754 9.55514 26.4754 9.55514 26.4754 9.56185L26.1491 10.4076L25.1428 10.0988L25 9.76993L24.6873 7.46092C24.6737 7.38708 24.6057 7.33338 24.5241 7.34009C24.4425 7.35352 24.3881 7.42064 24.4017 7.50119L24.7145 9.82363V12.287L23.7558 13.5489C23.7422 13.5624 23.7354 13.5825 23.7286 13.6026L23.3955 15.2337C23.3955 15.2471 23.3887 15.2606 23.3955 15.274L23.7014 18.4824L22.5184 17.8314ZM18.0515 10.7298C18.0447 10.7164 18.0379 10.6962 18.0311 10.6828L17.5076 9.98472C17.2628 9.01816 16.9025 7.56831 16.8889 7.46092C16.8889 7.37366 16.7869 6.99777 16.7257 6.75613L16.8889 5.78285C16.8889 5.76942 16.8889 5.756 16.8889 5.74258L16.6509 4.18533L17.0317 2.94356L17.5008 2.78918L19.8464 4.60149L21.0294 5.78956C21.0362 5.79627 21.043 5.80299 21.0498 5.80299L22.0289 6.49435L20.4447 7.77639C20.4379 7.77639 20.4379 7.7831 20.4379 7.78982C20.4311 7.79653 20.4311 7.79653 20.4243 7.80324C20.4243 7.80995 20.4175 7.80995 20.4175 7.81667C20.4175 7.82338 20.4107 7.82338 20.4107 7.82338L18.3982 11.9179L18.0515 10.7298ZM28.0935 6.4138C28.0868 6.40709 28.08 6.40038 28.0664 6.40038C28.0596 6.40038 28.0596 6.39366 28.0596 6.39366L26.8153 5.91038L28.7598 2.32603L29.7253 1.01043H30.5276L31.6902 7.6153L30.9491 8.83022L28.0935 6.4138ZM29.6573 0.728516C29.6097 0.728516 29.5689 0.748653 29.5417 0.788926L28.5219 2.16494C28.5151 2.17165 28.5151 2.17836 28.5083 2.18508L26.5162 5.85668L24.4289 6.22586L23.7218 6.23928L22.3076 6.34668L21.2266 5.58819L20.0436 4.40012C20.0368 4.39341 20.0368 4.39341 20.03 4.3867L17.6164 2.52069C17.5756 2.49384 17.528 2.48042 17.4804 2.50055L16.8685 2.70192C16.8277 2.71535 16.7937 2.74891 16.7801 2.79589L16.3722 4.13835C16.3654 4.15848 16.3654 4.17862 16.3654 4.19876L16.6033 5.76942L16.4401 6.75613C16.4401 6.77626 16.4401 6.7964 16.4401 6.81654C16.5149 7.09174 16.5965 7.42064 16.6033 7.47434C16.6033 7.5616 16.9501 8.94432 17.2424 10.0921C17.2492 10.1123 17.256 10.1257 17.2628 10.1391L17.7863 10.8439L18.2147 12.3273L17.494 15.9049C17.494 15.9049 17.494 15.9049 17.494 15.9117C17.494 15.9184 17.494 15.9251 17.494 15.9318C17.494 15.9452 17.494 15.9519 17.494 15.9654C17.494 15.9721 17.5008 15.9788 17.5008 15.9855C17.5076 15.9922 17.5076 16.0056 17.5144 16.0123C17.5212 16.019 17.5212 16.0258 17.528 16.0258C17.5348 16.0325 17.5416 16.0392 17.5552 16.0459L17.562 16.0526C17.562 16.0526 17.5688 16.0526 17.5756 16.0593C17.5756 16.0593 17.5824 16.0593 17.5824 16.066L22.4028 18.0931L23.817 18.8516C23.817 18.8516 23.817 18.8516 23.8238 18.8516C23.8238 18.8516 23.8238 18.8516 23.8306 18.8516C23.851 18.8583 23.8646 18.865 23.885 18.865C23.8918 18.865 23.9054 18.865 23.9122 18.865L24.5581 18.7509L27.3457 18.5294H27.9576C27.9712 18.5294 27.9848 18.5294 28.0052 18.5227C28.012 18.5227 28.012 18.5227 28.0188 18.516C28.0324 18.5093 28.0392 18.5026 28.0528 18.4959C28.0528 18.4959 28.0596 18.4959 28.0596 18.4892L28.9502 17.7173L31.4386 16.7171C31.4726 16.7037 31.5066 16.6701 31.5202 16.6366L32.5401 13.9584C32.5537 13.9248 32.5537 13.8846 32.5401 13.851L31.8466 12.24L31.765 9.51487C31.765 9.49473 31.7582 9.48131 31.7514 9.46117C31.7514 9.45446 31.7446 9.44774 31.7378 9.44774C31.731 9.43432 31.7242 9.42761 31.7106 9.4209C31.7106 9.4209 31.7106 9.42089 31.7106 9.41418L31.1939 9.01816L31.9826 7.71598C32.0029 7.68913 32.0029 7.65557 32.0029 7.62201L30.7859 0.842624C30.7723 0.775501 30.7179 0.728516 30.6432 0.728516H29.6573Z" fill="url(#paint0_linear_3386_4224)"/>
<mask id="mask0_3386_4224" style="mask-type:luminance" maskUnits="userSpaceOnUse" x="16" y="0" width="17" height="19">
<path d="M26.0743 17.4488L27.4273 18.2408H27.3253L24.5377 18.4623L26.0743 17.4488ZM24.1774 15.4821L24.2385 14.8511L25.1632 15.1666L25.2516 15.5693L24.3949 15.9586L24.1774 15.4821ZM26.5774 15.2606L26.7134 14.8981L27.3933 14.8108V15.4686L26.5774 15.2606ZM24.6737 16.1466L25.476 15.7774C25.5371 15.7506 25.5711 15.6834 25.5575 15.623L25.4284 15.0256C25.4148 14.9786 25.3808 14.9384 25.3332 14.9182L24.4357 14.6162L25.0748 14.1933H25.6731C25.6867 14.1933 25.7003 14.1933 25.7139 14.1866L26.5638 13.9517L27.2097 14.5491L26.5842 14.6296C26.5298 14.6363 26.489 14.6699 26.4686 14.7169L26.2442 15.3008C26.2306 15.3411 26.2306 15.3814 26.251 15.4149C26.2714 15.4485 26.3054 15.4754 26.3394 15.4888L27.2301 15.717L26.1966 16.603L26.1151 15.1397C26.1083 15.0592 26.0403 15.0055 25.9655 15.0055C25.8839 15.0122 25.8295 15.0726 25.8295 15.1532L25.9111 16.697L24.6737 16.1466ZM17.8407 15.858L19.5609 13.0321L20.8391 12.8911L20.8187 13.0791C20.8119 13.1126 20.8187 13.1395 20.8391 13.1663L22.4572 15.7707L22.1513 17.677L17.8407 15.858ZM18.4594 12.5287L19.2685 12.9583L17.9291 15.1599L18.4594 12.5287ZM29.4057 15.0122C29.4125 14.9786 29.399 14.9384 29.3786 14.9115L28.5899 13.8241L29.3921 12.1394C29.3989 12.1192 29.4057 12.0991 29.4057 12.079V11.7232L31.5746 12.4011L32.2273 13.9181L31.2551 16.4822L29.0386 17.3749L29.4057 15.0122ZM23.6878 15.2539L24.0142 13.6765L24.9796 12.4011C25 12.3743 25.0068 12.3474 25.0068 12.3139V10.4881L25.7751 12.2602C25.7819 12.2803 25.8023 12.3005 25.8227 12.3139L27.876 13.8778L28.6647 16.8648L28.7191 17.536L27.9372 18.214L26.2238 17.2071V16.9655L27.638 15.7573L27.6448 15.7506C27.6516 15.7438 27.6652 15.7304 27.672 15.717C27.672 15.7103 27.6788 15.7036 27.6788 15.7036C27.6788 15.6969 27.6856 15.6969 27.6856 15.6901C27.6856 15.6834 27.6856 15.6767 27.6856 15.67C27.6856 15.6633 27.6924 15.6566 27.6924 15.6566V14.6565V14.6497V14.643C27.6924 14.6363 27.6856 14.6296 27.6856 14.6229C27.6856 14.6162 27.6788 14.6095 27.6788 14.5961C27.672 14.5826 27.6652 14.5759 27.6584 14.5692C27.6516 14.5625 27.6516 14.5625 27.6516 14.5558L26.7202 13.7033C26.6862 13.6698 26.6318 13.6563 26.5842 13.6698L25.6731 13.9181H25.034C25.0068 13.9181 24.9796 13.9248 24.9524 13.945L24.0346 14.5491C24.0278 14.5491 24.0278 14.5558 24.021 14.5625C24.0142 14.5692 24.0006 14.5759 23.9938 14.5893C23.987 14.596 23.987 14.6028 23.9802 14.6095C23.9802 14.6162 23.9734 14.6162 23.9734 14.6229C23.9734 14.6296 23.9734 14.6363 23.9734 14.643C23.9734 14.6497 23.9666 14.6497 23.9666 14.6565L23.8782 15.5022C23.8782 15.5291 23.8782 15.5492 23.8918 15.576L24.1909 16.2204C24.1977 16.2338 24.2045 16.2473 24.2181 16.2607C24.2181 16.2674 24.2249 16.2674 24.2317 16.2674C24.2385 16.2741 24.2453 16.2808 24.2589 16.2875L24.2657 16.2943L25.9247 17.0393V17.2273L23.9938 18.4959L23.6878 15.2539ZM21.111 13.0589L21.1926 12.3474L21.6617 11.1862L22.9807 10.0653L23.1575 10.9312C23.1643 10.9647 23.1847 10.9916 23.2119 11.0117L24.0618 11.6628L23.2867 12.9046L22.77 13.8577C22.7632 13.8711 22.7564 13.8845 22.7564 13.9047L22.5252 15.3411L21.111 13.0589ZM26.3666 10.6224L26.693 9.76322L27.3865 9.91089V10.1861C27.3865 10.2532 27.4341 10.3069 27.4952 10.3203L29.1134 10.6828V12.0454L28.2975 13.7772C28.2771 13.8241 28.2771 13.8778 28.3111 13.9181L29.1202 15.0256L28.8754 16.5627L28.1343 13.757C28.1275 13.7235 28.1072 13.6966 28.0868 13.6832L26.0199 12.1125L25.2924 10.4277L26.1966 10.7029C26.2102 10.7097 26.2238 10.7096 26.2374 10.7096C26.2918 10.7096 26.3462 10.6761 26.3666 10.6224ZM29.4057 11.4211V10.6627L31.459 9.74308L31.527 12.0857L29.4057 11.4211ZM18.5478 12.2535L20.5875 8.10529L22.8516 9.80349L21.451 10.9916C21.4306 11.005 21.417 11.0251 21.4102 11.0453L20.9207 12.2602C20.9139 12.2736 20.9139 12.287 20.9139 12.2937L20.8799 12.6025L19.5065 12.7569L18.5478 12.2535ZM27.6788 10.072V9.79678C27.6788 9.72966 27.6312 9.67596 27.5632 9.65582L26.8085 9.49473L28.0528 6.74941L30.8947 9.1524L31.3231 9.48131L29.2494 10.421L27.6788 10.072ZM22.5184 17.8314L22.4164 17.7911L22.7428 15.7707C22.7428 15.7707 22.7428 15.7707 22.7428 15.764L23.0283 13.9785L23.5315 13.0522L24.3677 11.7098C24.4085 11.6494 24.3881 11.5688 24.3337 11.5218L23.4295 10.8305L23.2187 9.77665C23.2187 9.76322 23.2119 9.7498 23.2051 9.73637L23.1983 9.72966C23.1915 9.71624 23.1779 9.70952 23.1711 9.6961C23.1711 9.6961 23.1711 9.68939 23.1643 9.68939L20.7643 7.8905L22.3144 6.62859L23.7286 6.5212L24.4425 6.50777C24.4493 6.50777 24.4561 6.50777 24.4629 6.50777L26.591 6.13189L27.808 6.60846L26.4754 9.54843C26.4754 9.54843 26.4754 9.54843 26.4754 9.55514C26.4754 9.55514 26.4754 9.55514 26.4754 9.56185L26.1491 10.4076L25.1428 10.0988L25 9.76993L24.6873 7.46092C24.6737 7.38708 24.6057 7.33338 24.5241 7.34009C24.4425 7.35352 24.3881 7.42064 24.4017 7.50119L24.7145 9.82363V12.287L23.7558 13.5489C23.7422 13.5624 23.7354 13.5825 23.7286 13.6026L23.3955 15.2337C23.3955 15.2471 23.3887 15.2606 23.3955 15.274L23.7014 18.4824L22.5184 17.8314ZM18.0515 10.7298C18.0447 10.7164 18.0379 10.6962 18.0311 10.6828L17.5076 9.98472C17.2628 9.01816 16.9025 7.56831 16.8889 7.46092C16.8889 7.37366 16.7869 6.99777 16.7257 6.75613L16.8889 5.78285C16.8889 5.76942 16.8889 5.756 16.8889 5.74258L16.6509 4.18533L17.0317 2.94356L17.5008 2.78918L19.8464 4.60149L21.0294 5.78956C21.0362 5.79627 21.043 5.80299 21.0498 5.80299L22.0289 6.49435L20.4447 7.77639C20.4379 7.77639 20.4379 7.7831 20.4379 7.78982C20.4311 7.79653 20.4311 7.79653 20.4243 7.80324C20.4243 7.80995 20.4175 7.80995 20.4175 7.81667C20.4175 7.82338 20.4107 7.82338 20.4107 7.82338L18.3982 11.9179L18.0515 10.7298ZM28.0935 6.4138C28.0868 6.40709 28.08 6.40038 28.0664 6.40038C28.0596 6.40038 28.0596 6.39366 28.0596 6.39366L26.8153 5.91038L28.7598 2.32603L29.7253 1.01043H30.5276L31.6902 7.6153L30.9491 8.83022L28.0935 6.4138ZM29.6573 0.728516C29.6097 0.728516 29.5689 0.748653 29.5417 0.788926L28.5219 2.16494C28.5151 2.17165 28.5151 2.17836 28.5083 2.18508L26.5162 5.85668L24.4289 6.22586L23.7218 6.23928L22.3076 6.34668L21.2266 5.58819L20.0436 4.40012C20.0368 4.39341 20.0368 4.39341 20.03 4.3867L17.6164 2.52069C17.5756 2.49384 17.528 2.48042 17.4804 2.50055L16.8685 2.70192C16.8277 2.71535 16.7937 2.74891 16.7801 2.79589L16.3722 4.13835C16.3654 4.15848 16.3654 4.17862 16.3654 4.19876L16.6033 5.76942L16.4401 6.75613C16.4401 6.77626 16.4401 6.7964 16.4401 6.81654C16.5149 7.09174 16.5965 7.42064 16.6033 7.47434C16.6033 7.5616 16.9501 8.94432 17.2424 10.0921C17.2492 10.1123 17.256 10.1257 17.2628 10.1391L17.7863 10.8439L18.2147 12.3273L17.494 15.9049C17.494 15.9049 17.494 15.9049 17.494 15.9117C17.494 15.9184 17.494 15.9251 17.494 15.9318C17.494 15.9452 17.494 15.9519 17.494 15.9654C17.494 15.9721 17.5008 15.9788 17.5008 15.9855C17.5076 15.9922 17.5076 16.0056 17.5144 16.0123C17.5212 16.019 17.5212 16.0258 17.528 16.0258C17.5348 16.0325 17.5416 16.0392 17.5552 16.0459L17.562 16.0526C17.562 16.0526 17.5688 16.0526 17.5756 16.0593C17.5756 16.0593 17.5824 16.0593 17.5824 16.066L22.4028 18.0931L23.817 18.8516C23.817 18.8516 23.817 18.8516 23.8238 18.8516C23.8238 18.8516 23.8238 18.8516 23.8306 18.8516C23.851 18.8583 23.8646 18.865 23.885 18.865C23.8918 18.865 23.9054 18.865 23.9122 18.865L24.5581 18.7509L27.3457 18.5294H27.9576C27.9712 18.5294 27.9848 18.5294 28.0052 18.5227C28.012 18.5227 28.012 18.5227 28.0188 18.516C28.0324 18.5093 28.0392 18.5026 28.0528 18.4959C28.0528 18.4959 28.0596 18.4959 28.0596 18.4892L28.9502 17.7173L31.4386 16.7171C31.4726 16.7037 31.5066 16.6701 31.5202 16.6366L32.5401 13.9584C32.5537 13.9248 32.5537 13.8846 32.5401 13.851L31.8466 12.24L31.765 9.51487C31.765 9.49473 31.7582 9.48131 31.7514 9.46117C31.7514 9.45446 31.7446 9.44774 31.7378 9.44774C31.731 9.43432 31.7242 9.42761 31.7106 9.4209C31.7106 9.4209 31.7106 9.42089 31.7106 9.41418L31.1939 9.01816L31.9826 7.71598C32.0029 7.68913 32.0029 7.65557 32.0029 7.62201L30.7859 0.842624C30.7723 0.775501 30.7179 0.728516 30.6432 0.728516H29.6573Z" fill="white"/>
</mask>
<g mask="url(#mask0_3386_4224)">
<path d="M32.5263 0.728516H16.3584V18.865H32.5263V0.728516Z" fill="url(#paint1_linear_3386_4224)"/>
</g>
<path d="M27.2369 11.354L27.4884 10.9043L27.9371 10.7231L28.6442 11.0721L28.3587 11.4748L27.2369 11.354ZM27.8895 10.4412L27.332 10.6627C27.3048 10.6761 27.2776 10.6962 27.2572 10.7231L26.8765 11.401C26.8561 11.4413 26.8561 11.495 26.8765 11.5353C26.8969 11.5755 26.9377 11.6024 26.9853 11.6091L28.3995 11.7702C28.4063 11.7702 28.4131 11.7702 28.4131 11.7702C28.4607 11.7702 28.5015 11.7501 28.5287 11.7098L28.9638 11.099C28.991 11.0654 28.9978 11.0251 28.9842 10.9849C28.9774 10.9446 28.9434 10.911 28.9094 10.8909L27.9983 10.4412C27.9779 10.4344 27.9575 10.4277 27.9371 10.4277C27.9303 10.4277 27.9099 10.4344 27.8895 10.4412Z" fill="url(#paint2_linear_3386_4224)"/>
<mask id="mask1_3386_4224" style="mask-type:luminance" maskUnits="userSpaceOnUse" x="26" y="10" width="3" height="2">
<path d="M27.2369 11.354L27.4884 10.9043L27.9371 10.7231L28.6442 11.0721L28.3587 11.4748L27.2369 11.354ZM27.8895 10.4412L27.332 10.6627C27.3048 10.6761 27.2776 10.6962 27.2572 10.7231L26.8765 11.401C26.8561 11.4413 26.8561 11.495 26.8765 11.5353C26.8969 11.5755 26.9377 11.6024 26.9853 11.6091L28.3995 11.7702C28.4063 11.7702 28.4131 11.7702 28.4131 11.7702C28.4607 11.7702 28.5015 11.7501 28.5287 11.7098L28.9638 11.099C28.991 11.0654 28.9978 11.0251 28.9842 10.9849C28.9774 10.9446 28.9434 10.911 28.9094 10.8909L27.9983 10.4412C27.9779 10.4344 27.9575 10.4277 27.9371 10.4277C27.9303 10.4277 27.9099 10.4344 27.8895 10.4412Z" fill="white"/>
</mask>
<g mask="url(#mask1_3386_4224)">
<path d="M28.9976 10.4277H26.856V11.7635H28.9976V10.4277Z" fill="url(#paint3_linear_3386_4224)"/>
</g>
<path d="M21.723 12.0389L22.0289 11.4616H22.6204L23.008 11.9315L22.7224 12.3141L22.1717 12.4013L21.723 12.0389ZM21.9473 11.1797C21.893 11.1797 21.8454 11.2065 21.8182 11.2535L21.417 12.0053C21.383 12.0657 21.4034 12.1395 21.451 12.1798L22.0357 12.6564C22.0629 12.6765 22.0969 12.6899 22.1241 12.6899C22.1309 12.6899 22.1377 12.6899 22.1445 12.6899L22.8108 12.5826C22.8448 12.5758 22.8788 12.5557 22.8992 12.5289L23.2867 12.0187C23.3275 11.965 23.3275 11.8979 23.2799 11.8442L22.7768 11.2401C22.7496 11.2065 22.7088 11.1864 22.668 11.1864H21.9473V11.1797Z" fill="url(#paint4_linear_3386_4224)"/>
<mask id="mask2_3386_4224" style="mask-type:luminance" maskUnits="userSpaceOnUse" x="21" y="11" width="3" height="2">
<path d="M21.723 12.0389L22.0289 11.4616H22.6204L23.008 11.9315L22.7224 12.3141L22.1717 12.4013L21.723 12.0389ZM21.9473 11.1797C21.893 11.1797 21.8454 11.2065 21.8182 11.2535L21.417 12.0053C21.383 12.0657 21.4034 12.1395 21.451 12.1798L22.0357 12.6564C22.0629 12.6765 22.0969 12.6899 22.1241 12.6899C22.1309 12.6899 22.1377 12.6899 22.1445 12.6899L22.8108 12.5826C22.8448 12.5758 22.8788 12.5557 22.8992 12.5289L23.2867 12.0187C23.3275 11.965 23.3275 11.8979 23.2799 11.8442L22.7768 11.2401C22.7496 11.2065 22.7088 11.1864 22.668 11.1864H21.9473V11.1797Z" fill="white"/>
</mask>
<g mask="url(#mask2_3386_4224)">
<path d="M23.348 11.1797H21.3899V12.6899H23.348V11.1797Z" fill="url(#paint5_linear_3386_4224)"/>
</g>
<path d="M1.79523 32.7797C0.999757 32.5515 0.360655 32.2561 -0.12207 31.8869L0.727799 30.0276C1.19013 30.3633 1.74084 30.6317 2.37994 30.8331C3.01905 31.0345 3.65135 31.1352 4.29045 31.1352C4.99754 31.1352 5.52106 31.0345 5.86101 30.8264C6.20096 30.6183 6.37093 30.3431 6.37093 29.9941C6.37093 29.739 6.26895 29.5309 6.07178 29.3631C5.87461 29.1953 5.61625 29.0611 5.30349 28.9604C4.99074 28.8597 4.56921 28.7456 4.03209 28.6248C3.20942 28.4301 2.53632 28.2422 2.0128 28.0475C1.48928 27.8529 1.04055 27.5441 0.666609 27.1212C0.292666 26.6984 0.102295 26.1278 0.102295 25.4163C0.102295 24.7988 0.272269 24.235 0.612217 23.7315C0.952165 23.2281 1.46209 22.8321 2.14878 22.5368C2.83547 22.2414 3.66495 22.0938 4.6508 22.0938C5.33749 22.0938 6.01059 22.1743 6.67008 22.3354C7.32958 22.4965 7.90069 22.7314 8.39702 23.0335L7.62874 24.9062C6.62929 24.3491 5.63664 24.0672 4.6372 24.0672C3.9369 24.0672 3.42018 24.1813 3.08704 24.4028C2.75389 24.6243 2.58391 24.9196 2.58391 25.2888C2.58391 25.6512 2.77428 25.9265 3.16182 26.101C3.54936 26.2755 4.13407 26.4567 4.92955 26.6245C5.75222 26.8192 6.42532 27.0071 6.94884 27.2018C7.47236 27.3964 7.92109 27.6985 8.29503 28.1146C8.66898 28.5308 8.85935 29.0946 8.85935 29.8061C8.85935 30.417 8.68937 30.9674 8.34263 31.4708C7.99588 31.9742 7.47916 32.3702 6.79247 32.6656C6.10577 32.9609 5.2695 33.1086 4.27685 33.1086C3.41339 33.122 2.59071 33.0079 1.79523 32.7797Z" fill="url(#paint6_linear_3386_4224)"/>
<path d="M19.5813 22.6778C20.3224 23.0604 20.8935 23.631 21.3083 24.3828C21.7162 25.1345 21.927 26.0407 21.927 27.1079V32.9342H19.4318V30.3768H14.4957V32.9342H12.0277V27.1079C12.0277 26.0407 12.2317 25.1345 12.6464 24.3828C13.0544 23.631 13.6323 23.0672 14.3733 22.6778C15.1144 22.2952 15.9847 22.1006 16.9773 22.1006C17.9768 22.1006 18.8471 22.2952 19.5813 22.6778ZM19.4318 28.4034V26.8797C19.4318 25.9937 19.2074 25.3292 18.7655 24.8795C18.3235 24.4297 17.7252 24.2015 16.9637 24.2015C16.1955 24.2015 15.5904 24.4297 15.1552 24.8795C14.7201 25.3292 14.5025 26.0004 14.5025 26.8797V28.4034H19.4318Z" fill="url(#paint7_linear_3386_4224)"/>
<path d="M32.9753 27.4435H35.2597V32.9409H33.3764V32.3032C32.6285 32.8536 31.6631 33.1221 30.4801 33.1221C29.4806 33.1221 28.5696 32.9073 27.7333 32.4845C26.9038 32.0616 26.2375 31.4373 25.7412 30.6184C25.2449 29.7995 25.0001 28.833 25.0001 27.7053C25.0001 26.6179 25.2517 25.6514 25.7616 24.8056C26.2715 23.9599 26.9786 23.2954 27.8829 22.8188C28.7871 22.3422 29.807 22.1006 30.9356 22.1006C31.8807 22.1006 32.7373 22.255 33.5124 22.5704C34.2807 22.8859 34.9334 23.3424 35.4569 23.9397L33.8524 25.403C33.0841 24.6043 32.1526 24.2015 31.0648 24.2015C30.3781 24.2015 29.7662 24.3492 29.2291 24.6378C28.692 24.9264 28.2772 25.3359 27.9781 25.8662C27.6789 26.3964 27.5293 27.0005 27.5293 27.6919C27.5293 28.4101 27.6789 29.0276 27.9713 29.5311C28.2636 30.0412 28.658 30.4238 29.1475 30.6789C29.6438 30.9406 30.1809 31.0682 30.7656 31.0682C31.6359 31.0682 32.377 30.8265 32.9685 30.3365V27.4435H32.9753Z" fill="url(#paint8_linear_3386_4224)"/>
<path d="M46.5936 22.6778C47.3346 23.0604 47.9058 23.631 48.3205 24.3828C48.7284 25.1345 48.9392 26.0407 48.9392 27.1079V32.9342H46.444V30.3768H41.5079V32.9342H39.0399V27.1079C39.0399 26.0407 39.2439 25.1345 39.6586 24.3828C40.0666 23.631 40.6445 23.0672 41.3856 22.6778C42.1266 22.2952 42.9969 22.1006 43.9896 22.1006C44.989 22.1006 45.8525 22.2952 46.5936 22.6778ZM46.444 28.4034V26.8797C46.444 25.9937 46.2196 25.3292 45.7777 24.8795C45.3357 24.4297 44.7374 24.2015 43.976 24.2015C43.2077 24.2015 42.6026 24.4297 42.1674 24.8795C41.7323 25.3292 41.5147 26.0004 41.5147 26.8797V28.4034H46.444Z" fill="url(#paint9_linear_3386_4224)"/>
<path d="M6.42521 37.9346C6.69716 37.7869 7.00992 37.7131 7.36346 37.7131C7.92778 37.7131 8.3969 37.9145 8.79804 38.3306L8.95442 38.4917L10.2054 37.3574L10.0626 37.1895C9.7431 36.8204 9.33516 36.5385 8.86603 36.3438C8.3969 36.1559 7.87338 36.0552 7.30227 36.0552C6.62238 36.0552 5.99687 36.2028 5.44616 36.4915C4.89544 36.7801 4.45351 37.1963 4.14076 37.7131C3.82801 38.2299 3.67163 38.8273 3.67163 39.4919C3.67163 40.1765 3.82801 40.7739 4.12716 41.2773C4.43311 41.7807 4.84785 42.17 5.35777 42.4318C5.86769 42.6936 6.432 42.8211 7.03711 42.8211C7.58783 42.8211 8.06375 42.7205 8.46489 42.5258V42.7137H10.0015V39.116H8.23373V40.888C7.94817 41.0894 7.60823 41.1901 7.20029 41.1901C6.90113 41.1901 6.62918 41.1229 6.37761 40.9954C6.13285 40.8679 5.94248 40.6799 5.7929 40.4249C5.64333 40.1698 5.56854 39.8543 5.56854 39.4851C5.56854 39.1294 5.64333 38.8139 5.7929 38.5521C5.94928 38.2836 6.15325 38.0823 6.42521 37.9346ZM5.34417 39.4851C5.34417 39.8946 5.42576 40.2503 5.59573 40.539C5.76571 40.8276 5.99007 41.0491 6.26883 41.1968C6.55439 41.3444 6.86034 41.4183 7.19349 41.4183C7.69661 41.4183 8.11135 41.2773 8.45809 41.0021V39.3442H9.76349V42.4922H8.68926V42.1231C8.26092 42.4385 7.70341 42.5929 7.03031 42.5929C6.4592 42.5929 5.93568 42.4721 5.45976 42.2237C4.98383 41.9821 4.60309 41.6264 4.31753 41.1565C4.03197 40.6866 3.896 40.1295 3.896 39.4851C3.896 38.8609 4.03877 38.3105 4.33113 37.8272C4.62348 37.3439 5.02462 36.9613 5.54814 36.6928C6.06486 36.4176 6.64957 36.2834 7.29547 36.2834C7.83939 36.2834 8.32891 36.3707 8.77084 36.5519C9.21278 36.7331 9.57992 36.9949 9.88588 37.3372L8.96802 38.1763C8.52608 37.7198 7.99577 37.4849 7.37026 37.4849C6.97592 37.4849 6.62238 37.5654 6.31642 37.7332C6.01047 37.901 5.77251 38.136 5.60253 38.438C5.42576 38.7401 5.34417 39.0891 5.34417 39.4851ZM15.9981 36.4176C15.5426 36.1827 15.0055 36.0619 14.4004 36.0619C13.7953 36.0619 13.2582 36.1827 12.8026 36.4176C12.3403 36.6593 11.9732 37.0217 11.7216 37.4849C11.47 37.948 11.3409 38.5052 11.3409 39.1562V42.7205H13.2106V41.2572H15.5766V42.7205H17.4667V39.1562C17.4667 38.5119 17.3375 37.948 17.086 37.4849C16.8276 37.015 16.4605 36.6526 15.9981 36.4176ZM17.2355 42.4922H15.8078V41.029H12.9794V42.4922H11.5652V39.1562C11.5652 38.5454 11.6808 38.0286 11.9188 37.599C12.1567 37.1694 12.4831 36.8405 12.9046 36.6257C13.3261 36.4042 13.8225 36.2968 14.3936 36.2968C14.9647 36.2968 15.461 36.4042 15.8826 36.6257C16.3041 36.8472 16.6372 37.1694 16.8684 37.599C17.1064 38.0286 17.2219 38.5521 17.2219 39.1562V42.4922H17.2355ZM14.3936 37.2634C13.8905 37.2634 13.4825 37.4178 13.1902 37.7198C12.8978 38.0219 12.7482 38.4582 12.7482 39.022V40.1228H16.0321V39.022C16.0321 38.4582 15.8826 38.0219 15.5902 37.7198C15.291 37.4111 14.8899 37.2634 14.3936 37.2634ZM15.8078 39.8946H12.9794V39.022C12.9794 38.5186 13.1018 38.136 13.3533 37.8742C13.6049 37.6124 13.9516 37.4849 14.3936 37.4849C14.8287 37.4849 15.1755 37.6124 15.427 37.8742C15.6786 38.136 15.8078 38.5119 15.8078 39.022V39.8946ZM24.8232 36.1626L22.6747 39.7402L20.4922 36.1626H18.9489V42.7205H20.7506V39.7201L22.2056 42.0761H23.1098L24.5716 39.653L24.5784 42.7205H26.3801L26.3597 36.1626H24.8232ZM24.8028 42.4922L24.796 38.8273L22.9739 41.8411H22.328L20.5194 38.9012V42.4855H19.18V36.3841H20.3631L22.6747 40.1765L24.9524 36.3841H26.1286L26.149 42.4855H24.8028V42.4922ZM27.9099 42.7205H29.8V36.1626H27.9099V42.7205ZM28.1411 36.3908H29.5688V42.4922H28.1411V36.3908ZM35.5927 39.4583L32.8595 36.1626H31.3366V42.7205H33.2063V39.4247L35.9531 42.7205H37.4624V36.1626H35.5927V39.4583ZM35.8239 36.3908H37.2381V42.4922H36.0618L32.9819 38.7871V42.4922H31.5677V36.3908H32.7508L35.8239 40.096V36.3908ZM43.1804 40.888C42.8948 41.0894 42.5548 41.1901 42.1469 41.1901C41.8478 41.1901 41.5758 41.1229 41.3242 40.9954C41.0795 40.8679 40.8891 40.6799 40.7395 40.4249C40.59 40.1698 40.5152 39.8543 40.5152 39.4851C40.5152 39.1294 40.59 38.8139 40.7395 38.5521C40.8891 38.2836 41.0931 38.0823 41.365 37.9413C41.637 37.7937 41.9497 37.7198 42.3033 37.7198C42.8676 37.7198 43.3367 37.9212 43.7379 38.3373L43.8942 38.4984L45.1452 37.3641L45.0025 37.1963C44.6829 36.8271 44.275 36.5452 43.8059 36.3505C43.3367 36.1626 42.8132 36.0619 42.2421 36.0619C41.5622 36.0619 40.9367 36.2096 40.386 36.4982C39.8353 36.7868 39.3933 37.203 39.0806 37.7198C38.7678 38.2367 38.6115 38.8341 38.6115 39.4986C38.6115 40.1832 38.7678 40.7806 39.067 41.284C39.3729 41.7874 39.7877 42.1768 40.2976 42.4385C40.8075 42.7003 41.3718 42.8279 41.9769 42.8279C42.5277 42.8279 43.0036 42.7272 43.4047 42.5325V42.7205H44.9413V39.1227H43.1735V40.888H43.1804ZM43.4115 39.3442H44.7169V42.4922H43.6427V42.1231C43.2143 42.4385 42.6568 42.5929 41.9837 42.5929C41.4126 42.5929 40.8891 42.4721 40.4132 42.2237C39.9373 41.9821 39.5565 41.6264 39.271 41.1565C38.9854 40.6866 38.8494 40.1295 38.8494 39.4851C38.8494 38.8609 38.9922 38.3105 39.2845 37.8272C39.5769 37.3439 39.978 36.9613 40.5016 36.6928C41.0183 36.4176 41.603 36.2834 42.2489 36.2834C42.7928 36.2834 43.2823 36.3707 43.7243 36.5519C44.1662 36.7331 44.5333 36.9949 44.8393 37.3372L43.9214 38.1763C43.4795 37.7198 42.9492 37.4849 42.3237 37.4849C41.9293 37.4849 41.5758 37.5654 41.2698 37.7332C40.9639 37.901 40.7259 38.136 40.556 38.438C40.386 38.7401 40.2976 39.0891 40.2976 39.4851C40.2976 39.8946 40.3792 40.2503 40.5492 40.539C40.7191 40.8276 40.9435 41.0491 41.2223 41.1968C41.5078 41.3444 41.8138 41.4183 42.1469 41.4183C42.65 41.4183 43.0716 41.2773 43.4115 41.0021V39.3442Z" fill="url(#paint10_linear_3386_4224)"/>
</g>
<defs>
<linearGradient id="paint0_linear_3386_4224" x1="16.3594" y1="9.79476" x2="32.5241" y2="9.79476" gradientUnits="userSpaceOnUse">
<stop stop-color="#171CC0"/>
<stop offset="0.063018" stop-color="#1725C4"/>
<stop offset="0.1658" stop-color="#183DCE"/>
<stop offset="0.2955" stop-color="#1965DF"/>
<stop offset="0.4458" stop-color="#1A9CF6"/>
<stop offset="0.5" stop-color="#1BB1FF"/>
<stop offset="1" stop-color="#C41BFF"/>
</linearGradient>
<linearGradient id="paint1_linear_3386_4224" x1="16.3576" y1="9.79785" x2="32.5276" y2="9.79785" gradientUnits="userSpaceOnUse">
<stop stop-color="#171CC0"/>
<stop offset="0.063018" stop-color="#1725C4"/>
<stop offset="0.1658" stop-color="#183DCE"/>
<stop offset="0.2955" stop-color="#1965DF"/>
<stop offset="0.4458" stop-color="#1A9CF6"/>
<stop offset="0.5" stop-color="#1BB1FF"/>
<stop offset="1" stop-color="#C41BFF"/>
</linearGradient>
<linearGradient id="paint2_linear_3386_4224" x1="26.8653" y1="11.0987" x2="28.9983" y2="11.0987" gradientUnits="userSpaceOnUse">
<stop stop-color="#171CC0"/>
<stop offset="0.063018" stop-color="#1725C4"/>
<stop offset="0.1658" stop-color="#183DCE"/>
<stop offset="0.2955" stop-color="#1965DF"/>
<stop offset="0.4458" stop-color="#1A9CF6"/>
<stop offset="0.5" stop-color="#1BB1FF"/>
<stop offset="1" stop-color="#C41BFF"/>
</linearGradient>
<linearGradient id="paint3_linear_3386_4224" x1="26.865" y1="11.0954" x2="28.998" y2="11.0954" gradientUnits="userSpaceOnUse">
<stop stop-color="#171CC0"/>
<stop offset="0.063018" stop-color="#1725C4"/>
<stop offset="0.1658" stop-color="#183DCE"/>
<stop offset="0.2955" stop-color="#1965DF"/>
<stop offset="0.4458" stop-color="#1A9CF6"/>
<stop offset="0.5" stop-color="#1BB1FF"/>
<stop offset="1" stop-color="#C41BFF"/>
</linearGradient>
<linearGradient id="paint4_linear_3386_4224" x1="21.402" y1="11.9358" x2="23.3325" y2="11.9358" gradientUnits="userSpaceOnUse">
<stop stop-color="#171CC0"/>
<stop offset="0.063018" stop-color="#1725C4"/>
<stop offset="0.1658" stop-color="#183DCE"/>
<stop offset="0.2955" stop-color="#1965DF"/>
<stop offset="0.4458" stop-color="#1A9CF6"/>
<stop offset="0.5" stop-color="#1BB1FF"/>
<stop offset="1" stop-color="#C41BFF"/>
</linearGradient>
<linearGradient id="paint5_linear_3386_4224" x1="21.4021" y1="11.9341" x2="23.3325" y2="11.9341" gradientUnits="userSpaceOnUse">
<stop stop-color="#171CC0"/>
<stop offset="0.063018" stop-color="#1725C4"/>
<stop offset="0.1658" stop-color="#183DCE"/>
<stop offset="0.2955" stop-color="#1965DF"/>
<stop offset="0.4458" stop-color="#1A9CF6"/>
<stop offset="0.5" stop-color="#1BB1FF"/>
<stop offset="1" stop-color="#C41BFF"/>
</linearGradient>
<linearGradient id="paint6_linear_3386_4224" x1="-0.124423" y1="27.6106" x2="8.84763" y2="27.6106" gradientUnits="userSpaceOnUse">
<stop stop-color="#171CC0"/>
<stop offset="0.063018" stop-color="#1725C4"/>
<stop offset="0.1658" stop-color="#183DCE"/>
<stop offset="0.2955" stop-color="#1965DF"/>
<stop offset="0.4458" stop-color="#1A9CF6"/>
<stop offset="0.5" stop-color="#1BB1FF"/>
<stop offset="1" stop-color="#C41BFF"/>
</linearGradient>
<linearGradient id="paint7_linear_3386_4224" x1="12.4268" y1="33.3295" x2="21.4131" y2="24.2271" gradientUnits="userSpaceOnUse">
<stop stop-color="#171CC0"/>
<stop offset="0.5" stop-color="#1BB1FF"/>
<stop offset="1" stop-color="#C41BFF"/>
</linearGradient>
<linearGradient id="paint8_linear_3386_4224" x1="25.0068" y1="27.6108" x2="35.459" y2="27.6108" gradientUnits="userSpaceOnUse">
<stop stop-color="#171CC0"/>
<stop offset="0.063018" stop-color="#1725C4"/>
<stop offset="0.1658" stop-color="#183DCE"/>
<stop offset="0.2955" stop-color="#1965DF"/>
<stop offset="0.4458" stop-color="#1A9CF6"/>
<stop offset="0.5" stop-color="#1BB1FF"/>
<stop offset="1" stop-color="#C41BFF"/>
</linearGradient>
<linearGradient id="paint9_linear_3386_4224" x1="49.3761" y1="32.3214" x2="39.1405" y2="25.0618" gradientUnits="userSpaceOnUse">
<stop stop-color="#171CC0"/>
<stop offset="0.5" stop-color="#1BB1FF"/>
<stop offset="1" stop-color="#C41BFF"/>
</linearGradient>
<linearGradient id="paint10_linear_3386_4224" x1="3.66363" y1="39.4397" x2="45.1508" y2="39.4397" gradientUnits="userSpaceOnUse">
<stop stop-color="#171CC0"/>
<stop offset="0.063018" stop-color="#1725C4"/>
<stop offset="0.1658" stop-color="#183DCE"/>
<stop offset="0.2955" stop-color="#1965DF"/>
<stop offset="0.4458" stop-color="#1A9CF6"/>
<stop offset="0.5" stop-color="#1BB1FF"/>
<stop offset="1" stop-color="#C41BFF"/>
</linearGradient>
<clipPath id="clip0_3386_4224">
<rect width="49" height="48" fill="white"/>
</clipPath>
</defs>
</svg>
